<?xml version="1.0" encoding="UTF-8"?>
<svg xmlns="http://www.w3.org/2000/svg" viewBox="0 0 907.26 907.25">
  <defs>
    <style>
      .cls-1 {
        fill: #fff;
      }

      .cls-2 {
        fill: #00665e;
      }
    </style>
  </defs>
  <g id="Pantone_329_BG" data-name="Pantone 329 BG">
    <rect class="cls-2" x="0" width="907.26" height="907.25"/>
  </g>
  <g id="Logo">
    <g>
      <path class="cls-1" d="M318.09,431.47h8.14l-4.07-10.55-4.07,10.55Zm-8.49,10.35l11.85-28.21h3.08l11.85,28.21h-6.2l-2.73-7.07h-10.63l-2.77,7.07h-4.46Zm28.49-1.3l-.47-5.1c2.71,2.29,5.57,3.44,8.57,3.44,1.71,0,3-.34,3.87-1.01,1.66-1.28,1.66-3.54,.45-4.98-1.03-1.22-2.82-1.96-7.09-4.01-3.79-1.82-5.69-4.46-5.69-7.94,0-2.42,.83-4.35,2.49-5.79,3.64-3.15,9.65-1.95,10.25-1.84,1.15,.21,2.26,.54,3.34,.99l.47,4.86c-1.29-.92-2.5-1.59-3.61-2.02-3.85-1.45-7.96-.47-7.96,2.85,0,1.62,1.04,2.73,3.2,3.83,4.96,2.5,7.29,3.48,9.07,5.71,2.17,2.74,2.28,8.03-1.2,10.79-1.82,1.44-4.33,2.15-7.55,2.15-4.21,0-7.03-1.31-8.14-1.94Zm26.87,1.3v-24.77c-2.31,.05-4.75,.21-8.46,.67l.32-4.11h21.69l.32,4.11c-4.68-.58-7.2-.65-8.49-.67v24.77h-5.37Zm28.21-2.81c4.39,0,8.38-3.51,8.38-11.3,0-.65,.16-6.9-3.93-9.92-1.25-.92-2.73-1.38-4.44-1.38-5.86,0-8.38,5.44-8.38,11.3,0,7.74,3.96,11.3,8.38,11.3Zm0,3.44c-8.42,0-14.22-6.11-14.22-14.74s5.86-14.74,14.22-14.74,14.22,5.98,14.22,14.74-5.8,14.74-14.22,14.74Zm18.57-.63v-28.21h2.92l16.87,19.16v-19.16h3.99v28.21h-2.96l-16.83-19.2v19.2h-3.99Zm38.81,0l3.16-28.21h2.88l10.04,19.68,9.68-19.68h2.88l3.16,28.21h-5.73l-1.62-17.42-7.9,16.28h-2.61l-8.02-16.08-1.62,17.23h-4.31Zm42.71-10.35h8.14l-4.07-10.55-4.07,10.55Zm-8.49,10.35l11.85-28.21h3.08l11.85,28.21h-6.2l-2.73-7.07h-10.63l-2.77,7.07h-4.46Zm34.69-15.37c.76,.13,1.51,.2,2.25,.2,4.6,0,5.73-2.64,5.73-4.94,0-3.46-2.45-4.9-5.97-4.9-.63,0-1.3,.04-2.02,.12v9.52Zm-5.37,15.37v-27.97c1.57-.2,3.45-.36,6.32-.36,2.53,0,4.73,.3,6.6,.89,2.71,.86,5.93,2.8,5.93,7.05,0,1.77-.55,3.34-1.64,4.72-1.09,1.38-2.61,2.37-4.56,2.95l9.92,12.72h-6.52l-8.85-12.05h-1.82v12.05h-5.37Zm29.2,0v-24.77c-2.31,.05-4.75,.21-8.46,.67l.32-4.11h21.69l.32,4.11c-4.67-.58-7.19-.65-8.49-.67v24.77h-5.37Zm17.54-28.21h5.37v28.21h-5.37v-28.21Zm10.9,28.21v-28.21h2.92l16.87,19.16v-19.16h3.99v28.21h-2.96l-16.83-19.2v19.2h-3.99Z"/>
      <path class="cls-1" d="M796.73,380.6c-1.82-3.22-5.41-5.07-9.83-5.07H509.41c-4.68,0-11.76,0-19.12,7.36-2.41,2.41-3.75,4.8-4.93,6.91-2.28,4.08-3.93,7.04-11.52,7.04h-40.43c-7.59,0-9.24-2.95-11.52-7.04-1.18-2.11-2.52-4.5-4.93-6.91-7.36-7.36-14.43-7.36-19.12-7.36H120.36c-4.42,0-8.01,1.85-9.83,5.07-1.82,3.22-1.59,7.33,.62,11l5,8.34c2.69,4.61,6.25,5.33,8.84,5.85,2.36,.47,3.78,.76,5.6,3.95l4.4,7.74c3.41,6.33,7.52,7.11,10.52,7.68,2.31,.43,4.49,.63,7.42,5.97,2.86,5.2,7.18,13.07,17.66,16.19,1.03,.3,103.4,30.15,103.53,30.19,10.78,3.49,13.61,7.47,16.98,12.45,2,2.95,7.31,10.79,20.47,14.33l98.45,26.6c10.53,2.84,17.19-2.31,20.26-5.03l17.86-16.91c2.45-2.32,3.99-3.23,5.5-3.23s3.04,.91,5.5,3.23l17.86,16.91c3.09,2.73,9.76,7.85,20.26,5.02l98.45-26.6c13.16-3.54,18.47-11.38,20.47-14.33,3.35-4.92,6.11-8.93,16.97-12.45,.13-.04,102.5-29.89,103.53-30.19,10.48-3.12,14.8-10.99,17.66-16.19,2.81-5.11,4.91-5.5,7.13-5.91,2.96-.55,7.28-1.18,10.81-7.73l4.4-7.74c1.82-3.19,3.24-3.47,5.6-3.95,2.6-.52,6.15-1.23,8.84-5.85l5-8.34c2.21-3.67,2.44-7.79,.62-11Zm-189.52,22.81v48.6H300.05v-48.6h307.15Zm-110.16,120.01c-7.58,0-10.2-6.49-12.12-11.6-2.19-5.81-14.37-44.02-17.73-54.52h15.14c8.25,13.84,23.12,38.7,29.61,48.89,1.16,1.81,4.44,7.46,10.43,10.91-23.34,6.31-22.75,6.32-25.33,6.32Zm35.83-9.8c-8.49,0-12.94-6.56-15.65-10.8-5.56-8.71-18.16-29.68-27.6-45.52h16.82c10.6,11.28,33.05,35.07,41.87,43.9,1.33,1.33,4.18,4.36,8.3,6.65-20.45,5.53-20.55,5.77-23.74,5.77Zm34.39-9.17c-6.61,0-11.24-4.38-14.53-7.68-7.77-7.77-26.23-27.29-37.7-39.47h18.4c11.7,8.6,38.7,28.39,49.3,35.63,1.95,1.34,5.78,3.69,10.27,5.08-23.74,6.42-23.23,6.44-25.73,6.44Zm43.3-18.29c-3.05,4.51-5.29,6.74-10.43,6.74-4.72,0-9.83-2.38-13.87-5.14-8.79-6.01-29.02-20.76-42.25-30.46h21.89c26.83,13.4,38.1,19.38,45.81,21.62,1.39,.4,2.66,.68,3.86,.86-2,2.02-3.42,4.07-5.01,6.38Zm8.15-12.41c-6.14,0-14.12-4.06-38.82-16.46h23.93l33.55,8.56c2.29,.6,4.39,1.1,6.35,1.51-18.79,5.48-21.65,6.39-25.01,6.39Zm65.58-18.22c-19.84,5.79-23.05,7.05-28.66,7.05-3.74,0-8.66-.7-16.69-2.79h-.02s-26.43-6.75-26.43-6.75v-9.44l71.79,11.93Zm20.49-5.97c-6.33,1.58-12.21,1.06-21.5-.54h-.02s-70.76-11.76-70.76-11.76v-7.52l115.7,13-23.42,6.83Zm43.63-21.71c-.89,1.63-1.79,3.19-2.78,4.64-4.03,5.46-6.52,5.18-18.92,3.76l-114.21-12.83v-7.08l131.7,7.72c1,.06,3.65,.23,6.36,.4-.72,.96-1.44,2.07-2.16,3.39Zm22.4-21.48s-2.43,4.28-3.68,6.47c-3.82,6.21-5.74,6.11-16.9,5.33l-137.72-8.11v-5.71h159.6c-.44,.59-.88,1.26-1.3,2.01Zm19.52-18.26l-3.61,6.03c-2.53,3.97-3.52,3.97-12.05,3.97H487.93c3.07-3.5,3.85-7.17,7.13-10.46,5.4-5.4,10.07-5.38,14.34-5.38h277.49c1.92,0,3.36,.6,3.95,1.64,.6,1.07,.41,2.64-.53,4.19Zm-365.87,133.79c1.19-1.75,2.3-4.04,3.75-7.88,2.25-5.96,14.86-45.53,18.44-56.73h13.97c3.59,11.2,16.19,50.77,18.44,56.73,1.45,3.84,2.56,6.12,3.75,7.88-.42-.32-.85-.67-1.27-1.04l-17.77-16.82c-2.79-2.64-5.94-5.08-10.14-5.08-4.2,0-7.35,2.44-10.14,5.08l-17.77,16.82c-.43,.37-.85,.72-1.27,1.04Zm-39.56-4.81c5.99-3.45,9.27-9.1,10.43-10.91,6.5-10.18,21.37-35.04,29.61-48.89h15.14c-3.36,10.5-15.54,48.71-17.73,54.52-1.92,5.1-4.54,11.6-12.12,11.6-2.58,0-1.99-.01-25.33-6.32Zm-34.23-9.25c4.12-2.29,6.97-5.32,8.3-6.65,8.82-8.82,31.27-32.62,41.87-43.9h16.82c-9.45,15.84-22.04,36.81-27.6,45.52-2.71,4.24-7.16,10.8-15.65,10.8-3.19,0-3.28-.24-23.74-5.77Zm-36.39-9.83c4.49-1.39,8.32-3.74,10.27-5.08,10.6-7.24,37.6-27.03,49.3-35.63h18.4c-11.47,12.18-29.93,31.7-37.7,39.47-3.29,3.3-7.92,7.68-14.53,7.68-2.51,0-2-.02-25.73-6.44Zm-22.58-18.23c1.2-.18,2.47-.45,3.86-.86,7.71-2.24,18.98-8.22,45.81-21.62h21.89c-13.23,9.7-33.46,24.45-42.25,30.46-4.04,2.76-9.15,5.14-13.87,5.14-5.14,0-7.38-2.23-10.43-6.74-1.59-2.31-3.01-4.35-5.01-6.38Zm-28.15-12.41c1.96-.41,4.06-.91,6.35-1.51l33.55-8.56h23.93c-24.7,12.4-32.68,16.46-38.82,16.46-3.36,0-6.22-.9-25.01-6.39Zm31.22-23.76v9.44s-26.43,6.74-26.43,6.74h-.02c-8.03,2.1-12.95,2.8-16.69,2.8-5.61,0-8.82-1.26-28.66-7.05l71.79-11.93Zm-115.7-.87l115.7-13v7.52s-70.76,11.76-70.76,11.76h-.02c-9.3,1.6-15.17,2.12-21.5,.55l-23.42-6.83Zm-22.36-18.26c2.71-.17,5.36-.34,6.36-.4l131.7-7.72v7.08s-114.21,12.83-114.21,12.83c-12.4,1.42-14.89,1.7-18.92-3.76-.99-1.45-1.88-3.02-2.78-4.64-.72-1.31-1.44-2.43-2.16-3.39Zm-21.54-20.1h159.6v5.71s-137.72,8.11-137.72,8.11c-11.17,.77-13.08,.87-16.9-5.33-1.25-2.19-3.66-6.43-3.68-6.47-.43-.75-.86-1.41-1.3-2.01Zm-18.75-20.45c.59-1.04,2.03-1.64,3.95-1.64H397.85c4.27,0,8.94-.02,14.34,5.38,3.29,3.29,4.06,6.96,7.13,10.46H132.61c-8.53,0-9.53,0-12.05-3.97l-3.61-6.03c-.94-1.56-1.14-3.12-.53-4.19Z"/>
    </g>
  </g>
<div xmlns="" id="divScriptsUsed" style="display: none"/><script xmlns="" id="globalVarsDetection" src="moz-extension://8de0a36d-67e3-463d-894c-bdc5087eac63/js/wrs_env.js"/></svg>